<?xml version="1.0" encoding="UTF-8"?>
<svg viewBox="0 0 744.09448819 1052.3622047" xmlns="http://www.w3.org/2000/svg">
 <g transform="translate(-231.09 -37.857)" fill-opacity=".94118">
  <path d="m279.49 68.442h181.01a23.424 23.424 0 0 1 23.424 23.424v181.01a23.424 23.424 0 0 1 -23.424 23.424h-181.01a23.424 23.424 0 0 1 -23.424 -23.424v-181.01a23.424 23.424 0 0 1 23.424 -23.424" fill="#fff" stroke="#f00" stroke-width="2.1"/>
  <path d="m278.97 72.375c-10.597 0.53368-18.969 9.2662-18.969 20v56.188c36.207-26.697 79.415-48.028 100.91-46.125 11.572-4.0178 3.8973-1.254 20.25-8.2188 10.199 4.5812 19.688 16.188 19.688 16.188l3.1875 3.875-92.938 75.938-3.1562-3.875s-9.5146-11.624-11.969-22.531c5.8882-6.9064 10.784-12.601 15.125-17.562-13.916 6.7483-31.069 17.905-48.438 32.094-0.8988 0.73423-1.7739 1.4829-2.6562 2.2188v91.812c0 11.08 8.92 20 20 20h69.094c-1.8352-6.2594-3.6644-12.52-5.5-18.781l6.3438-6.625 7.4375 25.406h21.906c-9.2333-21.549-18.493-43.085-27.75-64.625l5.9375-6.2188 30.438 70.844h23.5l-14.156-24.656 5.7188-6 17.625 30.656h23.531c-3.2264-4.4751-6.5097-9.0615-9.875-13.75l5.5625-5.8125c4.9097 6.8297 9.632 13.342 14.156 19.562h6.0312c7.161 0 13.406-3.7482 16.938-9.375-11.267-12.409-23.551-25.928-36.719-40.375l5.4688-5.75c12.641 13.873 23.552 25.838 34.219 37.562 0.0701-0.68403 0.0937-1.3594 0.0937-2.0625v-29.625c-36.529-32.102-73.131-64.116-109.69-96.188l6.1875-5.0938 103.5 90.688v-26.312c-5.1254-3.5309-10.248-7.0658-15.375-10.594l5.5312-5.8125 9.8438 6.7812v-22.5c-4.5756-2.4012-9.1418-4.8204-13.719-7.2188l5.6875-5.9688 8.0312 4.2188v-72.375c0-11.08-8.92-20-20-20h-180c-0.34625 0-0.68943-0.01722-1.0312 0zm120.44 50.156 29.969 15.719-5.6875 5.9375c-10.301-5.397-20.608-10.784-30.906-16.188l6.625-5.4688zm-12.031 9.9375 78.625 54.094-5.5625 5.8125c-26.475-18.214-52.939-36.432-79.406-54.656l6.3438-5.25zm46.625 8.1875 33.375 17.469-5.7188 5.9688c-11.119-5.8254-22.225-11.675-33.344-17.5l5.6875-5.9375zm-67.594 9.1562c7.0518 7.7679 15.66 17.2 24.469 26.875l-5.5 5.75c-8.9978-9.8788-17.823-19.549-25.094-27.562l6.125-5.0625zm-9.2812 7.6562c14.448 19.778 31.871 44.163 49.312 68.625l-5.5625 5.8125c-17.627-24.693-35.192-49.258-49.875-69.375l6.125-5.0625zm-9.5312 7.875 52.781 91.844-5.7188 6c-17.755-30.901-35.534-61.783-53.281-92.688l6.2188-5.1562zm-10.5 8.6875 18.25 42.5-5.9375 6.25c-6.2278-14.491-12.471-28.973-18.688-43.469l6.375-5.2812zm57.125 6.375c15.25 16.747 31.802 34.873 48.094 52.75l-5.4688 5.75c-16.353-17.939-32.825-35.99-48.094-52.75l5.4688-5.75zm-68.688 3.1875 22.781 77.812-6.3438 6.6562c-7.7168-26.313-15.423-52.62-23.125-78.938l6.6875-5.5312zm83.844 46.656c9.3457 13.107 18.626 26.117 27.469 38.438l-5.5625 5.8125c-8.8804-12.386-18.129-25.396-27.438-38.438l5.5312-5.8125z" fill="#f00"/>
 </g>
</svg>
