<?xml version="1.0" encoding="UTF-8"?>
<svg width="351" height="351" viewBox="0 0 351.775 351.775" xmlns="http://www.w3.org/2000/svg">
 <defs>
  <clipPath id="a">
   <path d="m0 1172.6h1170.8v-1170.8h-1170.8v1170.8"/>
  </clipPath>
 </defs>
 <g transform="matrix(1.25 0 0 -1.25 0 351.78)">
  <g transform="scale(.24)">
   <g clip-path="url(#a)">
    <path d="m586.29 62.727c289.16 0 523.57 234.43 523.57 523.58 0 289.1-234.42 523.56-523.57 523.56-289.14 0-523.57-234.46-523.57-523.56 0-289.15 234.43-523.58 523.57-523.58" fill="#fff"/>
    <path d="m586.29 62.727c289.16 0 523.57 234.43 523.57 523.58 0 289.1-234.42 523.56-523.57 523.56-289.14 0-523.57-234.46-523.57-523.56 0-289.15 234.43-523.58 523.57-523.58z" fill="none" stroke="#1cacea" stroke-width="125.61"/>
    <path d="m584.2 867.32-11.414-170.54 406.62-165.97 6.371 221.32-401.57 115.18" fill="#1cacea"/>
    <path d="m584.2 867.32-11.414-170.54 406.62-165.97 6.371 221.32-401.57 115.18z" fill="none" stroke="#fff" stroke-width="13.421"/>
    <path d="m976.02 650.81v-50.004l-308.25-210.19v85.113l308.25 175.08" fill="#1cacea"/>
    <path d="m976.02 650.81v-50.004l-308.25-210.19v85.113l308.25 175.08z" fill="none" stroke="#fff" stroke-width="13.421"/>
    <path d="m230.04 560.41 411.98-115.6 325.87 220.7-372.11 107.28-365.74-212.38" fill="#1cacea"/>
    <path d="m230.04 560.41 411.98-115.6 325.87 220.7-372.11 107.28-365.74-212.38z" fill="none" stroke="#fff" stroke-width="13.421"/>
    <path d="m198.47 625.3-11.403-153.72 453.16-165.67 6.421 182.52-448.18 136.88" fill="#1cacea"/>
    <path d="m198.47 625.3-11.403-153.72 453.16-165.67 6.421 182.52-448.18 136.88zm274.54-60.938 190.6 125.16m-139.78 43.188 380.3-106.66" fill="none" stroke="#fff" stroke-width="13.421"/>
    <path d="m575.88 805.32-63.36-81.867 125.35-43.504 75.719 84.645-137.71 40.726" fill="#1cacea"/>
    <path d="m575.88 805.32-63.36-81.867 125.35-43.504 75.719 84.645-137.71 40.726z" fill="none" stroke="#fff" stroke-width="13.421"/>
    <path d="m771.39 753.54-79.098-87.293 157.33-54.562 72.953 96.3-151.18 45.555" fill="#1cacea"/>
    <path d="m771.39 753.54-79.098-87.293 157.33-54.562 72.953 96.3-151.18 45.555z" fill="none" stroke="#fff" stroke-width="13.421"/>
   </g>
  </g>
 </g>
</svg>
