<?xml version="1.0" encoding="UTF-8"?>
<svg viewBox="0 0 793.7 1122.5" width="32" height="32" xmlns="http://www.w3.org/2000/svg">
 <path d="m105.52 200.85c-37.901 0-68.726 30.825-68.726 68.656v527.04c0 37.831 30.825 68.657 68.726 68.657h526.9c37.972 0 68.797-30.826 68.797-68.657v-527.04c0-37.831-30.825-68.656-68.797-68.656h-526.9z" fill="#fff"/>
 <path d="m632.43 873.22c45.748 0 82.808-37.06 82.808-82.668v-527.04c0-45.537-37.06-82.667-82.808-82.667h-526.9c-45.747 0-82.737 37.13-82.737 82.667v527.04c0 45.608 36.99 82.668 82.737 82.668h526.9z" fill="#de9910"/>
 <g fill="#fff">
  <path d="m592.7 594.51v83.158h43.856v-124.35h-491.17v-179.98c0-12.05-9.6682-21.858-21.858-21.858-11.98 0-21.717 9.8083-21.717 21.858v304.33h43.576v-83.158h447.32z"/>
  <path d="m212.43 461.05c21.858 0 39.513-17.654 39.513-39.513 0-21.787-17.654-39.442-39.513-39.442-21.788 0-39.442 17.654-39.442 39.442 0 21.858 17.654 39.513 39.442 39.513"/>
  <path d="m637.26 520.6l-0.1401-54.294c-0.14014-17.304-14.572-29.144-31.526-31.246l-310-30.895c-0.63043-0.14008-1.1908-0.42026-1.752-0.42026-10.718 0-19.406 8.7568-19.406 19.406v58.567h-81.056c-10.929 0-19.616 8.7576-19.616 19.476 0 10.788 8.6868 19.406 19.616 19.406h443.88z"/>
 </g>
</svg>
