<?xml version="1.0" encoding="UTF-8"?>
<svg viewBox="0 0 289.775 289.775" xmlns="http://www.w3.org/2000/svg">
 <defs>
  <clipPath id="a">
   <path d="m0 0h965.93v965.93h-965.93v-965.93z"/>
  </clipPath>
 </defs>
 <g transform="matrix(1.25 0 0 -1.25 0 289.78)">
  <g transform="scale(.24)">
   <g clip-path="url(#a)">
    <path d="m482.96 51.73c238.16 0 431.23 193.07 431.23 431.23 0 238.17-193.07 431.23-431.23 431.23-238.15 0-431.23-193.07-431.23-431.23 0-238.16 193.09-431.23 431.23-431.23" fill="#fff"/>
    <path d="m0 482.96c0-266.3 216.66-482.96 482.96-482.96s482.96 216.66 482.96 482.96c0 266.31-216.66 482.96-482.96 482.96s-482.96-216.66-482.96-482.96zm103.46 0c0 209.26 170.25 379.5 379.51 379.5s379.51-170.24 379.51-379.5-170.25-379.51-379.51-379.51-379.51 170.25-379.51 379.51" fill="#1cacea"/>
    <path d="m515.71 654.36c-17.891-3.437-10.5-53.933-25.297-79.363-14.812-25.34-20.496-48.355-20.496-61.058 0-12.711 16.941-35.946 16.941-35.946l21.137 27.485-4.238-93.082s4.238-86.743 4.238-95.215c0-8.453-8.469-71.895-8.469-71.895l38.09-6.347 29.582 188.28v-186.17l40.25 10.562 2.11 86.743s3.222 93.191 5.332 103.77 3.14 80.266 3.14 80.266l38.059-46.508 12.715 29.594-38.039 89.394-21.778 57.77-51.613 9.687" fill="#1cacea"/>
    <path d="m593.59 697.77c0-19.86-16.106-35.946-35.965-35.946-19.902 0-35.949 16.086-35.949 35.946 0 19.871 16.047 35.992 35.949 35.992 19.859 0 35.965-16.121 35.965-35.992" fill="#1cacea"/>
    <path d="m367.99 632.88c-46.543-14.317-32.902-33.344-47.715-57.887-14.777-24.539-36.578-104.09-36.578-116.38 0-12.25 19.711-4.636 19.711-4.636l37.731 85.347-27.797-164.67s27.543-7.882 35.703-9.906c7.93-1.98-37.781-119.72-37.781-119.72l43.39 10.672 11.735 8.262 16.382 92.855h33.754l1.528-99.683 24.097-18.996 17.696 0.187-17.543 116.51s19.609-0.082 27.754 1.98c10.132 2.493-28.02 143.07-28.02 143.07l38.109-44.938 12.653 28.594-50.649 137.02-23.347 8.191-46.575 6.164" fill="#1cacea"/>
    <path d="m426.25 674.11c0-19.218-16.117-34.758-35.988-34.758-9.91 0-18.891 3.872-25.395 10.188-6.519 6.27-10.554 14.969-10.554 24.57 0 19.219 16.097 34.77 35.949 34.77 19.871 0 35.988-15.551 35.988-34.77" fill="#1cacea"/>
    <path d="m400.77 644.45c0-29.633-12.438-53.636-27.789-53.636-15.336 0-27.754 24.003-27.754 53.636 0 29.59 12.418 53.598 27.754 53.598 15.351 0 27.789-24.008 27.789-53.598" fill="#1cacea"/>
    <path d="m217.02 477.8c-28.981-8.965-22.887-16.004-32.114-31.246-9.211-15.309-20.355-69.559-20.355-77.168 0-7.68 10.722-11.848 10.722-11.848l19.352 27.344-16.801-87.61s17.16-3.789 22.223-5.058c4.933-1.219 0.23-44.547 0.23-44.547l8.426-4.598 19.555-3.332-4.692 50.582 24.141-1.265 0.445-45.102 15-11.785 10.993 0.105-7.368 57.434s12.684 2.508 17.786 3.777c6.316 1.579-18.817 138.71-18.817 138.71l35.672 9.93-3.965 13.875-34.301 14.105-14.55 5.122-28.957 3.828" fill="#1cacea"/>
    <path d="m255.82 505.4c0-15.16-12.312-27.453-27.484-27.453s-27.43 12.293-27.43 27.453 12.262 27.485 27.43 27.485 27.484-12.324 27.484-27.485" fill="#1cacea"/>
    <path d="m185.73 518.68c-10.3-8.731-6.664-40.43-6.664-40.43 24.344 6.473 10.512 28.559 16.004 34.844 5.473 6.234 23.868-3.028 13.399 3.211s-15.453 9.339-22.739 2.375" fill="#1cacea"/>
    <path d="m733.46 466.45c33.058-8.137 29.223-36.558 39.723-50.515 10.562-13.915 28.191-36.641 28.191-43.641 0-6.938-14.063-15.817-14.063-15.817l-28.296 25.219 3.035-51.023s-3.035-47.61-3.035-52.266c0-4.621 6.031-39.43 6.031-39.43l-27.071-3.48-10.187 95.891-10.813-94.754-28.593 5.82-2.867 32.598s4.64 50.558 3.144 56.336c-1.5 5.816 6.281 72.027 6.281 72.027l-50.308 80.578 19.187 26.918 7.629-33.652 25.961-13.125 33.078 3.48" fill="#1cacea"/>
    <path d="m747.59 492.14c0-12.395-10.367-22.434-23.192-22.434-6.41 0-12.207 2.535-16.402 6.594-4.176 4.058-6.769 9.644-6.769 15.84 0 12.367 10.332 22.406 23.171 22.406 12.825 0 23.192-10.039 23.192-22.406" fill="#1cacea"/>
    <path d="m688.66 492.65h25.066v8.4258h-25.066v-8.4258z" fill="#1cacea"/>
   </g>
  </g>
 </g>
</svg>
