<?xml version="1.0" encoding="UTF-8"?>
<svg viewBox="0 0 256 256" width="32" height="32" xmlns="http://www.w3.org/2000/svg">
 <g transform="matrix(25.882 0 0 -25.882 225.41 256)">
  <path d="m0,0c.652,0 1.182.529 1.182,1.182v7.527c0,.652-.53,1.182-1.182,1.182h-7.527c-.653,0-1.182-.53-1.182-1.182v-7.527c0-.653.529-1.182 1.182-1.182h7.527z" fill="#231f20"/>
 </g>
 <g transform="matrix(25.882 0 0 -25.882 30.582 5.1663)">
  <path d="m0,0c-.541,0-.982-.441-.982-.982v-7.528c0-.541.441-.98.982-.98h7.527c.541,0 .981.439.981.98v7.528c0,.541-.44.982-.981.982h-7.527z" fill="#fff"/>
 </g>
 <g transform="matrix(25.882 0 0 -25.882 82.044 78.568)">
  <path d="m0,0c.281.102.426.414.324.695s-.416.43-.697.326-.428-.414-.324-.697 .414-.428.697-.324" fill="#231f20"/>
 </g>
 <g transform="matrix(25.882 0 0 -25.882 229.6 153.33)">
  <path d="m0,0h-1.535v-1.186h-1.272v-1.386h-1.224v-.449h1.674v1.386h1.271v1.188h1.156v.447h-.07z" fill="#231f20" fill-rule="evenodd"/>
 </g>
 <g transform="matrix(25.882 0 0 -25.882 132.14 158.44)">
  <path d="m0,0c0,0-.043.154-.23.314l-.418.206 4.544,1.8-.103.26-4.783-1.894-.51.252-.002.968 .41-.51c.059-.08.153-.128.252-.126l1.002-.014c0,0 .234.008.25.269-.012.254-.25.268-.25.268l-.865-.008-.772,1.01c0,0-.07.156-.394.156l-.654.008c0,0-.295.023-.459-.205l-.799-.91c0,0-.08-.067-.115-.328l-.114-1.02c0,0-.008-.228.242-.271 0,0 .278-.053.311.252l.119.968 .553.659-.018-1.524 .123-.564-1.232-.487 .103-.261 1.188.47 .221-1.013-.348-.905c0,0-.229-.429.115-.549 .217-.074.418.086.541.397l.391,1.033c.031.08.08.236.058.375l-.201.969 .114.045 1.199-.557 .441-1.195c.108-.272.303-.276.459-.229 .188.078.235.256.16.463l-.529,1.428z" fill="#231f20" fill-rule="evenodd"/>
 </g>
</svg>
