<?xml version="1.0" encoding="UTF-8"?>
<svg viewBox="0 0 640 480" xmlns="http://www.w3.org/2000/svg">
 <path d="m615.79 171.79l0.0176 63.994-37.819-19.148v214.48h-525.12v-218.32l-40.869 22.986 2.0841-64.277 35.329-21.899h0.43951v-122.56h63.54v89.864l199.77-109.91 302.63 164.79z" fill="none" stroke="#000" stroke-linecap="round" stroke-linejoin="round" stroke-width="10"/>
 <g stroke="#000" stroke-width="5">
  <rect x="97" y="264" width="2" height="1" fill="#f00"/>
  <g fill="none" stroke-dasharray="null" stroke-linecap="null" stroke-linejoin="null">
   <line x1="101" x2="102" y1="262" y2="263"/>
   <line x1="96" x2="538" y1="265" y2="264"/>
   <line x1="97" x2="98" y1="272" y2="272"/>
   <line x1="95" x2="94" y1="270" y2="412"/>
   <line x1="538" x2="541" y1="269" y2="407"/>
   <line x1="533" x2="456" y1="414" y2="331"/>
   <line x1="97" x2="190" y1="406" y2="343"/>
   <line x1="193" x2="457" y1="338" y2="331"/>
   <line x1="612" x2="612" y1="365" y2="366"/>
   <line x1="457" x2="456" y1="325" y2="265"/>
   <line x1="193" x2="191" y1="336" y2="263"/>
   <line x1="103" x2="103" y1="405" y2="406"/>
   <line x1="633" x2="632" y1="400" y2="400"/>
   <line x1="92" x2="538" y1="412" y2="415"/>
   <line x1="632" x2="632" y1="316" y2="317"/>
   <line x1="94" x2="95" y1="239" y2="240"/>
   <line x1="95" x2="95" y1="240" y2="162"/>
   <line x1="94" x2="313" y1="159" y2="38"/>
   <line x1="628" x2="629" y1="250" y2="250"/>
   <line x1="315" x2="529" y1="37" y2="159"/>
   <line x1="533" x2="529" y1="246" y2="160"/>
   <line x1="98" x2="535" y1="241" y2="247"/>
   <line x1="117" x2="113" y1="275" y2="338"/>
   <line x1="113" x2="148" y1="339" y2="323"/>
   <line x1="148" x2="153" y1="325" y2="277"/>
   <line x1="120" x2="150" y1="278" y2="274"/>
   <line x1="131" x2="132" y1="277" y2="325"/>
   <line x1="118" x2="118" y1="304" y2="305"/>
   <line x1="118" x2="149" y1="306" y2="298"/>
   <line x1="176" x2="173" y1="127" y2="217"/>
   <line x1="449" x2="450" y1="116" y2="213"/>
   <line x1="177" x2="449" y1="218" y2="218"/>
   <line x1="455" x2="527" y1="214" y2="241"/>
   <line x1="169" x2="105" y1="216" y2="230"/>
   <line x1="479" x2="476" y1="284" y2="323"/>
   <line x1="476" x2="499" y1="320" y2="342"/>
   <line x1="503" x2="508" y1="342" y2="295"/>
   <line x1="479" x2="508" y1="284" y2="296"/>
   <line x1="478" x2="507" y1="302" y2="316"/>
   <line x1="492" x2="488" y1="294" y2="326"/>
  </g>
 </g>
</svg>
