<svg xmlns="http://www.w3.org/2000/svg" width="64" height="64" viewBox="0 0 48 48"><path d="M6 10a1.9884 1.9884 0 00-1.754.9922 1.9818 1.9818 0 000 2.0156A1.9884 1.9884 0 006 14h36a1.9884 1.9884 0 001.754-.9922 1.9818 1.9818 0 000-2.0156A1.9884 1.9884 0 0042 10zm0 12a1.9884 1.9884 0 00-1.754.9922 1.9818 1.9818 0 000 2.0156A1.9884 1.9884 0 006 26h36a1.9884 1.9884 0 001.754-.9922 1.9818 1.9818 0 000-2.0156A1.9884 1.9884 0 0042 22zm0 12a1.9884 1.9884 0 00-1.754.9922 1.9818 1.9818 0 000 2.0156A1.9884 1.9884 0 006 38h36a1.9884 1.9884 0 001.754-.9922 1.9818 1.9818 0 000-2.0156A1.9884 1.9884 0 0042 34zm0 0" fill="#fff"/></svg>