<?xml version="1.0" encoding="UTF-8"?>
<svg width="544.4" height="259.96" viewBox="0 0 544.4 259.96" xmlns="http://www.w3.org/2000/svg">
 <defs>
  <filter id="d" x="-.050001" y="-.26246" width="1.1" height="1.5249">
   <feGaussianBlur stdDeviation="1.637157"/>
  </filter>
  <linearGradient id="e" x1="-.005262" x2="1.0053" y1="-.001232" y2="1.0012">
   <stop stop-color="#ffc789" offset="0"/>
   <stop stop-color="#ffe7cd" offset="1"/>
  </linearGradient>
  <linearGradient id="f" x1="-.003859" x2="1.0039" y1=".5" y2=".5">
   <stop stop-color="#5f411c" offset="0"/>
   <stop stop-color="#454545" offset="1"/>
  </linearGradient>
 </defs>
 <g fill="#bf5f00">
  <rect transform="matrix(5.1841 1.6704 -1.5006 4.6473 -899.95 -2352.7)" x="318.82" y="409.63" width="77.746" height="13.954" rx=".76011" ry=".76011" filter="url(#d)" stroke="#000" stroke-width=".8"/>
  <rect transform="rotate(17.877)" x="149.71" y="27.206" width="431.5" height="77.444" rx="4.2187" ry="4.2187" stroke="url(#f)" stroke-width="4.44"/>
  <g stroke="#573006">
   <path d="m143.5 80.764l394.24 127.41" stroke-dasharray="2.77502757,2.77502757" stroke-width="11.1"/>
   <g stroke-miterlimit="0" stroke-width="2.775">
    <path d="m146.37 76.401l-6.3149 19.71"/>
    <path d="m188.73 89.644l-6.3149 19.71"/>
    <path d="m231.03 103.16l-6.3149 19.71"/>
    <path d="m273.18 116.94l-6.315 19.71"/>
    <path d="m315.5 130.32l-6.3149 19.71"/>
    <path d="m357.68 144.33l-6.3149 19.71"/>
    <path d="m399.99 158l-6.315 19.71"/>
    <path d="m442.15 171.75l-6.3149 19.71"/>
    <path d="m484.47 185.23l-6.3149 19.71"/>
    <path d="m526.78 198.85l-6.3149 19.71"/>
   </g>
  </g>
  <path d="m137.74 94.514l-0.4943 1.5474c-0.29289 0.91699-0.83812 1.7104-1.6357 2.3803-0.79756 0.6699-1.6892 0.84742-2.675 0.53256-0.56856-0.18159-1.0089-0.45993-1.3211-0.83503-0.3122-0.37508-0.53641-0.95449-0.67261-1.7382-0.13622-0.78371-0.084229-1.5515 0.15594-2.3035l0.4943-1.5474c0.29143-0.91241 0.83513-1.7051 1.6311-2.378 0.79599-0.67292 1.6869-0.85195 2.6726-0.5371 0.56393 0.18013 1.0024 0.45659 1.3153 0.82938 0.31291 0.37281 0.53978 0.9518 0.68059 1.737 0.14076 0.78519 0.090347 1.556-0.15128 2.3126zm-1.4167-0.4525c0.24454-0.76567 0.24516-1.5032 0.001831-2.2125-0.14197-0.39397-0.43303-0.66126-0.87315-0.80185-0.42641-0.13618-0.83052-0.07325-1.2123 0.18879-0.57648 0.39694-0.98918 0.98512-1.2381 1.7646l-0.4943 1.5474c-0.24602 0.77027-0.24435 1.5085 0.005051 2.2147 0.13738 0.39252 0.42842 0.6598 0.87317 0.80185 0.4218 0.13474 0.82361 0.07106 1.2054-0.19099 0.57648-0.39694 0.98918-0.98512 1.2381-1.7646l0.4943-1.5474z"/>
  <path d="m174.28 110.51l3.088 0.9863c0.21356-0.083359 0.39601-0.10088 0.54732-0.052559 0.21548 0.06884 0.36359 0.19445 0.44428 0.37687 0.080673 0.18239 0.066101 0.44553-0.043732 0.78941l-0.2153 0.674-6.4235-2.0517 0.4767-1.4924c3.2093-1.284 5.1735-2.1421 5.8926-2.5743 0.36404-0.22225 0.59-0.47092 0.67787-0.74602 0.10982-0.34386 0.056686-0.69557-0.15939-1.0551-0.21612-0.35955-0.57405-0.61914-1.0738-0.77877-0.50435-0.1611-0.97073-0.14837-1.3992 0.03817-0.22403 0.10022-0.43782 0.2871-0.64139 0.5606-0.1257 0.17207-0.25789 0.28142-0.39658 0.32808-0.13869 0.046646-0.29057 0.043617-0.45563-0.009109-0.19257-0.061501-0.33681-0.18337-0.43271-0.36557-0.095917-0.18222-0.11458-0.36503-0.055984-0.54843 0.08786-0.27509 0.32492-0.57831 0.7112-0.90969 0.38625-0.33136 0.86307-0.54286 1.4304-0.63448 0.56737-0.091621 1.1376-0.045906 1.7107 0.13714 0.88948 0.28412 1.5324 0.78633 1.9289 1.5066 0.39645 0.72034 0.4724 1.4633 0.22784 2.229-0.1245 0.38972-0.3212 0.7248-0.59013 1.0052-0.26894 0.28044-0.80662 0.61523-1.613 1.0044-0.63393 0.30784-1.8458 0.8353-3.6356 1.5824z"/>
  <path d="m222.63 117.58l-1.7617 5.5157c0.298 0.0952 0.49721 0.23082 0.59761 0.40691 0.1004 0.17606 0.11764 0.36726 0.051758 0.57358-0.065918 0.20633-0.19232 0.3529-0.3792 0.43974-0.1869 0.086845-0.42706 0.083382-0.72049-0.010338l-0.1801 0.564c0.298 0.095184 0.49684 0.23196 0.59651 0.41032 0.099655 0.17836 0.11653 0.3707 0.050659 0.57703-0.065918 0.20631-0.19196 0.35175-0.3781 0.4363-0.18617 0.084534-0.4489 0.072624-0.78818-0.035744l-1.8913-0.6041c-0.33929-0.10838-0.56029-0.25096-0.66298-0.42775-0.10268-0.17682-0.12033-0.37067-0.052979-0.58157 0.065903-0.20632 0.19194-0.35175 0.3781-0.4363 0.18616-0.084526 0.44888-0.072617 0.78818 0.035751l0.5502 0.1757 0.1801-0.564-3.8307-1.2235 0.3756-1.176 5.2132-4.6709 1.8638 0.5953zm-3.1716 5.0654l1.1071-3.4662-3.1497 2.8138 2.0426 0.6524z"/>
  <path d="m258.92 133.68c0.43005-0.1759 0.81958-0.28014 1.1685-0.31268 0.34894-0.032547 0.6976 0.006821 1.0461 0.11812 0.73816 0.23578 1.2909 0.7357 1.6582 1.4998 0.36734 0.76408 0.4097 1.5886 0.12704 2.4734-0.26215 0.82071-0.73202 1.402-1.4096 1.7439-0.67764 0.34187-1.4589 0.37151-2.3438 0.088867-0.73816-0.23578-1.2908-0.60176-1.6577-1.0979-0.367-0.49617-0.55777-1.1407-0.5723-1.9336-0.014557-0.79286 0.11874-1.6294 0.39993-2.5098 0.33682-1.0545 0.8576-1.8545 1.5624-2.3999 0.70474-0.54544 1.4442-0.90675 2.2182-1.0839 0.77405-0.1772 1.5233-0.15008 2.2477 0.081284 0.57312 0.18308 0.982 0.43745 1.2266 0.76315 0.15799 0.21721 0.19965 0.44273 0.12497 0.67656-0.065887 0.20633-0.18997 0.35745-0.37216 0.45335-0.18222 0.095901-0.36963 0.1131-0.5622 0.05159-0.11002-0.035141-0.25067-0.14069-0.42181-0.31664-0.1033-0.10371-0.21225-0.17389-0.32684-0.21051-0.44937-0.14351-0.95535-0.16492-1.518-0.06424-0.56274 0.10071-1.1048 0.35831-1.6262 0.77281-0.36014 0.28918-0.6831 0.6913-0.96887 1.2063zm-0.4901 2.246c-0.029022 0.59706 0.049194 1.0364 0.23465 1.3179 0.18542 0.28154 0.5097 0.49628 0.97278 0.6442 0.46304 0.1479 0.85837 0.14026 1.1858-0.022919 0.32748-0.16319 0.55789-0.4534 0.69116-0.87064 0.15228-0.47682 0.13568-0.91919-0.049835-1.3271-0.18549-0.40788-0.45706-0.66894-0.8147-0.78319-0.28427-0.090775-0.63269-0.047974-1.0453 0.12846-0.41257 0.17645-0.80411 0.48085-1.1746 0.91324z"/>
  <path d="m305.14 148.79c0.27286 0.39539 0.44312 0.79965 0.51074 1.2128 0.067566 0.41318 0.033295 0.83296-0.1029 1.2594-0.15085 0.47226-0.40536 0.8697-0.76358 1.1924-0.35818 0.32265-0.8215 0.5195-1.3899 0.59058-0.56839 0.071091-1.1552 0.009979-1.7604-0.18333-0.60522-0.1933-1.1142-0.48219-1.527-0.86668-0.41278-0.38448-0.67123-0.81313-0.77539-1.286-0.1041-0.47286-0.081482-0.94312 0.067871-1.4108 0.1362-0.42639 0.35159-0.78833 0.64621-1.0858 0.29462-0.29748 0.66766-0.52823 1.1192-0.69222-0.22266-0.39448-0.36148-0.78241-0.4165-1.1638-0.055023-0.38136-0.023956-0.75545 0.093201-1.1222 0.22992-0.71983 0.70309-1.2521 1.4195-1.5967 0.7164-0.34465 1.5056-0.37932 2.3676-0.104 0.86197 0.27531 1.4849 0.76105 1.8689 1.4572 0.38397 0.69614 0.461 1.4041 0.23111 2.124-0.11865 0.37137-0.30975 0.69685-0.57336 0.97644-0.26367 0.27959-0.60208 0.51256-1.0153 0.6989zm0.1356-2.1091c0.1113-0.34843 0.069702-0.6889-0.12472-1.0213-0.19449-0.33244-0.52322-0.5726-0.98633-0.72052-0.46765-0.14937-0.87708-0.14497-1.2282 0.013184-0.35117 0.15816-0.58237 0.41147-0.69366 0.75992-0.11276 0.35304-0.07193 0.69577 0.12253 1.0282s0.52551 0.57333 0.99316 0.7227c0.4631 0.14793 0.87021 0.14279 1.2214-0.015366 0.3511-0.15816 0.5831-0.41376 0.69586-0.7668zm-1.1596 4.1998c0.11862-0.37137 0.066589-0.7581-0.15616-1.1602-0.22272-0.40208-0.57019-0.67856-1.0424-0.82939-0.47226-0.15085-0.91568-0.127-1.3302 0.071533-0.41458 0.19853-0.68265 0.48808-0.8042 0.86864-0.093719 0.29343-0.037811 0.59297 0.16772 0.89862 0.2055 0.30565 0.58798 0.54782 1.1473 0.72647 0.56393 0.18013 1.0171 0.20488 1.3595 0.074219 0.34235-0.13065 0.56186-0.34728 0.65851-0.64989z"/>
  <path d="m340.86 155.22l-2.4647 7.7164 1.4236 0.4547c0.33929 0.10838 0.56027 0.25096 0.66293 0.42776 0.10269 0.17679 0.12036 0.37065 0.053009 0.58156-0.065918 0.20631-0.19196 0.35175-0.37811 0.43628-0.18616 0.084549-0.44885 0.072632-0.78815-0.035736l-4.2571-1.3597c-0.33929-0.10838-0.56027-0.25096-0.66296-0.42776-0.10269-0.17679-0.12036-0.37065-0.052979-0.58156 0.065887-0.20633 0.19192-0.35176 0.37808-0.4363 0.18616-0.084549 0.44888-0.072632 0.78818 0.035736l1.4236 0.4547 1.8781-5.8802-1.364-0.0719c-0.2193-0.009399-0.3794-0.030212-0.48029-0.062454-0.17877-0.057083-0.31085-0.1776-0.39609-0.36146-0.085266-0.18385-0.094971-0.37897-0.029083-0.5853 0.060059-0.18797 0.15543-0.32045 0.2861-0.39746 0.13071-0.076981 0.36285-0.10768 0.69641-0.092102l3.2833 0.1847z"/>
  <path d="m348.83 161.94l-0.4943 1.5474c-0.29288 0.91699-0.8381 1.7104-1.6356 2.3803-0.79758 0.66989-1.6892 0.8474-2.675 0.53255-0.56854-0.1816-1.0089-0.45992-1.3211-0.83502-0.3122-0.37509-0.53641-0.95448-0.67258-1.7382-0.13623-0.78372-0.084259-1.5516 0.15594-2.3035l0.4943-1.5474c0.29138-0.91242 0.83511-1.7051 1.6311-2.378 0.79596-0.67291 1.6869-0.85194 2.6726-0.53709 0.56393 0.18013 1.0024 0.45659 1.3153 0.82938 0.31293 0.37282 0.5398 0.9518 0.6806 1.737 0.14078 0.7852 0.090363 1.5561-0.15128 2.3126zm-1.4167-0.4525c0.24457-0.76567 0.24518-1.5032 0.001831-2.2125-0.14194-0.39397-0.43301-0.66124-0.87317-0.80185-0.42639-0.13618-0.8305-0.073242-1.2123 0.1888-0.57648 0.39694-0.98923 0.98511-1.2382 1.7646l-0.4943 1.5474c-0.24603 0.77025-0.24435 1.5085 0.005066 2.2147 0.13736 0.39252 0.42841 0.6598 0.87314 0.80185 0.42181 0.13474 0.82364 0.071075 1.2054-0.19098 0.57648-0.39693 0.98917-0.98511 1.2381-1.7646l0.4943-1.5474z"/>
  <path d="m382.64 168.56l-2.4647 7.7164 1.4236 0.4547c0.33929 0.10838 0.56027 0.25096 0.66293 0.42776 0.10269 0.17679 0.12036 0.37065 0.052979 0.58156-0.065887 0.20633-0.19192 0.35175-0.37808 0.4363-0.18616 0.084534-0.44885 0.072617-0.78815-0.035751l-4.2571-1.3597c-0.33932-0.10838-0.56027-0.25096-0.66296-0.42776-0.10269-0.17679-0.12036-0.37065-0.052979-0.58156 0.065887-0.20633 0.19192-0.35175 0.37808-0.4363 0.18616-0.084534 0.44885-0.072617 0.78818 0.035751l1.4236 0.4547 1.8782-5.8802-1.364-0.0719c-0.2193-0.009399-0.3794-0.030212-0.48029-0.062439-0.17877-0.057098-0.31085-0.17761-0.39609-0.36146-0.085297-0.18387-0.095001-0.37897-0.029083-0.58531 0.060028-0.18796 0.1554-0.32045 0.2861-0.39746 0.13071-0.076981 0.36282-0.10767 0.69638-0.092102l3.2834 0.1847z"/>
  <path d="m385.89 178.1l3.088 0.9863c0.21356-0.083359 0.396-0.10089 0.5473-0.052551 0.21548 0.068817 0.36356 0.19444 0.44428 0.37685 0.080688 0.1824 0.066101 0.44554-0.043701 0.78941l-0.2153 0.674-6.4235-2.0517 0.4767-1.4924c3.2093-1.284 5.1735-2.1421 5.8926-2.5743 0.36401-0.22226 0.58997-0.47093 0.67786-0.74603 0.10983-0.34386 0.056702-0.69557-0.15939-1.0551-0.21612-0.35956-0.57407-0.61914-1.0738-0.77878-0.50433-0.16109-0.97073-0.14836-1.3991 0.038162-0.22403 0.10025-0.43784 0.28711-0.64139 0.56062-0.1257 0.17207-0.2579 0.28143-0.39658 0.32806-0.1387 0.046661-0.29056 0.043625-0.45563-0.009109-0.19257-0.061493-0.33679-0.18335-0.43271-0.36557-0.095917-0.1822-0.11456-0.365-0.056-0.54842 0.08786-0.27508 0.32495-0.57832 0.71121-0.9097 0.38626-0.33136 0.86307-0.54285 1.4304-0.63448 0.56738-0.091614 1.1376-0.045898 1.7107 0.13715 0.8895 0.28412 1.5325 0.78633 1.9289 1.5066 0.39645 0.72034 0.47238 1.4633 0.22781 2.229-0.12448 0.38972-0.32117 0.72479-0.59009 1.0052-0.26895 0.28043-0.80661 0.61522-1.613 1.0044-0.63391 0.30786-1.8458 0.83531-3.6356 1.5824z"/>
  <path d="m425.38 182.21l-2.4647 7.7164 1.4236 0.4547c0.33926 0.10837 0.56024 0.25095 0.66293 0.42775 0.10269 0.17679 0.12033 0.37065 0.052979 0.58156-0.065887 0.20633-0.19192 0.35175-0.37808 0.4363-0.18616 0.084534-0.44888 0.072632-0.78815-0.035736l-4.2571-1.3598c-0.33932-0.10837-0.5603-0.25096-0.66299-0.42775-0.10266-0.1768-0.12033-0.37067-0.052979-0.58157 0.065918-0.20631 0.19196-0.35175 0.37811-0.43628 0.18616-0.084549 0.44885-0.072632 0.78818 0.035736l1.4236 0.4547 1.8782-5.8802-1.364-0.0719c-0.2193-0.009415-0.3794-0.030228-0.48026-0.062454-0.17883-0.057114-0.31085-0.1776-0.39612-0.36148-0.085266-0.18385-0.094971-0.37895-0.029053-0.5853 0.060028-0.18796 0.1554-0.32045 0.2861-0.39745 0.13068-0.076996 0.36282-0.1077 0.69638-0.092102l3.2833 0.1847z"/>
  <path d="m433.83 185.04l-1.7617 5.5157c0.298 0.0952 0.49722 0.23082 0.59763 0.40689 0.1004 0.17607 0.11762 0.36726 0.051727 0.57358-0.065887 0.20633-0.19229 0.3529-0.37918 0.43973-0.18689 0.086838-0.42706 0.083405-0.72052-0.01033l-0.1801 0.564c0.29804 0.095184 0.49686 0.23196 0.59656 0.41032 0.09964 0.17838 0.11652 0.3707 0.050598 0.57703-0.065887 0.20631-0.19192 0.35176-0.37808 0.4363-0.18616 0.084534-0.44888 0.072617-0.78818-0.035751l-1.8913-0.6041c-0.33929-0.10838-0.56027-0.25096-0.66296-0.42775-0.10269-0.1768-0.12036-0.37067-0.052979-0.58157 0.065887-0.20633 0.19192-0.35175 0.37811-0.4363 0.18616-0.084534 0.44885-0.072632 0.78815 0.035736l0.5502 0.1757 0.1801-0.564-3.8307-1.2235 0.3756-1.176 5.2132-4.6709 1.8638 0.5953zm-3.1716 5.0654l1.1071-3.4662-3.1497 2.8138 2.0426 0.6524z"/>
  <path d="m467.16 195.56l-2.4647 7.7164 1.4236 0.4547c0.33926 0.10837 0.56027 0.25096 0.66293 0.42775 0.10269 0.1768 0.12036 0.37065 0.053009 0.58157-0.065918 0.20631-0.19196 0.35175-0.37811 0.4363-0.18616 0.084534-0.44888 0.072617-0.78815-0.035736l-4.2571-1.3598c-0.33929-0.10837-0.56027-0.25096-0.66296-0.42776s-0.12036-0.37065-0.052979-0.58156c0.065887-0.20631 0.19192-0.35176 0.37808-0.4363 0.18616-0.084534 0.44888-0.072617 0.78818 0.035751l1.4236 0.4547 1.8782-5.8802-1.364-0.0719c-0.21933-0.009415-0.37942-0.030243-0.48032-0.062469-0.1788-0.057098-0.31082-0.17758-0.39612-0.36148-0.085266-0.18385-0.094971-0.37894-0.029053-0.58528 0.060028-0.18796 0.1554-0.32046 0.2861-0.39746 0.13071-0.076981 0.36285-0.10768 0.69638-0.092087l3.2834 0.1847z"/>
  <path d="m470.26 201.19c0.43008-0.17589 0.81958-0.28012 1.1685-0.31267 0.34891-0.032547 0.69763 0.006836 1.046 0.11812 0.73819 0.23579 1.291 0.7357 1.6583 1.4998 0.36728 0.76407 0.40961 1.5886 0.12698 2.4734-0.26215 0.82071-0.732 1.402-1.4096 1.7439-0.67764 0.34187-1.4589 0.37151-2.3438 0.088852-0.73816-0.23576-1.2908-0.60176-1.6577-1.0979-0.36704-0.49618-0.55777-1.1407-0.57233-1.9336-0.014526-0.79286 0.11877-1.6295 0.39993-2.5098 0.33682-1.0545 0.8576-1.8545 1.5624-2.4 0.70474-0.54542 1.4442-0.90674 2.2182-1.0839 0.77405-0.17718 1.5233-0.15007 2.2477 0.081299 0.57309 0.18306 0.982 0.43745 1.2266 0.76315 0.15799 0.21722 0.19965 0.44273 0.12494 0.67654-0.065887 0.20634-0.18994 0.35745-0.37219 0.45335-0.18222 0.095901-0.36957 0.11311-0.5621 0.051605-0.11008-0.035141-0.2507-0.1407-0.42184-0.31664-0.10333-0.10373-0.21228-0.1739-0.32687-0.21051-0.44937-0.14352-0.95535-0.16493-1.518-0.06424-0.56271 0.10071-1.1048 0.35831-1.6262 0.7728-0.36017 0.28918-0.68314 0.6913-0.9689 1.2063zm-0.49 2.246c-0.029022 0.59706 0.049194 1.0364 0.23462 1.3179 0.18546 0.28154 0.5097 0.49628 0.97278 0.64418 0.46307 0.1479 0.85837 0.14027 1.1859-0.022919 0.32752-0.16318 0.55783-0.4534 0.69116-0.8706 0.15225-0.47685 0.13565-0.9192-0.049805-1.3271-0.18555-0.4079-0.45712-0.66896-0.81476-0.78319-0.28424-0.09079-0.63266-0.047974-1.0452 0.12846-0.41257 0.17644-0.80414 0.48085-1.1746 0.91324z"/>
  <path d="m509.76 209.17l-2.4647 7.7164 1.4236 0.4547c0.33929 0.10838 0.5603 0.25098 0.66299 0.42778 0.10269 0.17679 0.12033 0.37065 0.052979 0.58156-0.065918 0.20631-0.19192 0.35175-0.37811 0.4363-0.18616 0.084534-0.44888 0.072617-0.78821-0.035751l-4.2571-1.3598c-0.33923-0.10835-0.56024-0.25095-0.66293-0.42775s-0.12033-0.37067-0.052979-0.58156c0.065887-0.20633 0.19192-0.35176 0.37808-0.4363 0.18616-0.084534 0.44891-0.072632 0.78818 0.035736l1.4236 0.4547 1.8782-5.8802-1.364-0.0719c-0.21933-0.009415-0.3794-0.030228-0.48026-0.062454-0.1788-0.057098-0.31088-0.1776-0.39612-0.36146-0.085297-0.18388-0.09494-0.37895-0.029053-0.58528 0.060059-0.18797 0.15543-0.32046 0.28613-0.39746 0.13068-0.076996 0.36276-0.10771 0.69635-0.092117l3.2834 0.1847z"/>
  <path d="m516.54 216.31c0.27289 0.39539 0.44312 0.79965 0.51074 1.2128 0.067566 0.41318 0.033325 0.83298-0.10284 1.2594-0.15088 0.47226-0.40546 0.86969-0.76361 1.1923-0.35822 0.32266-0.82153 0.5195-1.3899 0.59061-0.56842 0.071091-1.1552 0.009979-1.7604-0.18333-0.60522-0.19331-1.1142-0.48221-1.527-0.86668-0.41278-0.38449-0.67126-0.81314-0.77536-1.286-0.10413-0.47282-0.081482-0.94308 0.067902-1.4108 0.1362-0.42639 0.35156-0.78834 0.64615-1.0858 0.29462-0.29747 0.66766-0.52821 1.1192-0.69222-0.2226-0.39447-0.36145-0.78241-0.4165-1.1638-0.054993-0.38136-0.023926-0.75545 0.093201-1.1222 0.22992-0.71982 0.70312-1.2521 1.4196-1.5967 0.71637-0.34464 1.5056-0.3793 2.3675-0.104 0.862 0.27533 1.485 0.76105 1.869 1.4572 0.38397 0.69614 0.461 1.4041 0.23108 2.1239-0.11865 0.3714-0.30975 0.69688-0.57342 0.97646-0.26355 0.2796-0.60199 0.51257-1.0152 0.6989zm0.1356-2.1091c0.11133-0.34845 0.069763-0.68889-0.1247-1.0213-0.19446-0.33243-0.52325-0.5726-0.98633-0.7205-0.46765-0.14937-0.87708-0.14499-1.2282 0.013153-0.3512 0.15817-0.5824 0.41148-0.69366 0.75993-0.11279 0.35304-0.07196 0.69579 0.1225 1.0282 0.19446 0.33243 0.52551 0.57333 0.99322 0.72272 0.46301 0.1479 0.87018 0.14279 1.2213-0.015381 0.35114-0.15814 0.58313-0.41374 0.69586-0.7668zm-1.1595 4.1998c0.11865-0.3714 0.066528-0.75813-0.15613-1.1602-0.22278-0.4021-0.57025-0.67856-1.0425-0.82941-0.47223-0.15083-0.91571-0.127-1.3302 0.071548-0.41461 0.19853-0.68268 0.48808-0.8042 0.86862-0.09375 0.29344-0.037903 0.59297 0.16766 0.89864 0.2055 0.30565 0.58795 0.54779 1.1473 0.72646 0.56396 0.18014 1.0171 0.20488 1.3595 0.074234 0.34235-0.13065 0.56189-0.34728 0.65851-0.64987z"/>
  <g stroke-miterlimit="0">
   <path d="m113.44 143.42l405.47 130.55" stroke="url(#e)" stroke-width="2.775"/>
   <g stroke-width=".5">
    <path d="m522.93 267.65c-0.11536 1.2181-0.55456 2.3227-1.1382 3.3835-0.55621 0.91302-1.3705 1.6093-2.3334 2.0588-0.74005 0.38394-1.5047 0.42419-2.317 0.38434-0.60052 3.05e-4 -1.1954-0.067139-1.7881-0.15628l-4.1203-2.0027c0.58081 0.11346 1.1652 0.2139 1.7594 0.21652 0.77002 0.00177 1.5264 0.1918 2.2424-0.21637 0.92694-0.2937 1.6876-0.95935 2.2213-1.764 0.565-1.0106 0.98505-2.0584 1.0875-3.2255l4.3864 1.3216z" opacity=".439"/>
    <path d="m141.01 77.03c-1.0694 0.42819-2.1084 0.93533-3.1318 1.4637-0.72876 0.41225-1.1863 1.0732-1.4056 1.8686-0.10381 0.56084-0.073746 0.27702-0.089111 0.85159l-4.3993-1.2781c0.03978-0.65022-0.00145-0.33309 0.11948-0.95178 0.25558-0.89794 0.73918-1.6894 1.5304-2.2149 1.0174-0.56914 2.0901-1.045 3.1543-1.5179l4.2218 1.7788z" opacity=".439"/>
    <path d="m538.63 204.27c0.97931 0.63144 1.8361 1.3974 2.6303 2.2463 0.729 0.64461 1.2334 1.3886 1.5419 2.3014 0.21985 0.86363 0.28436 1.7488 0.39136 2.6301 0.083801 0.86966-0.10748 1.7214-0.32208 2.5576-0.14374 0.71956-0.5542 1.3006-0.99438 1.8669l-4.3117-1.5482c0.40765-0.51552 0.81305-1.0186 0.93402-1.6869 0.19934-0.78314 0.37665-1.5797 0.27386-2.3929-0.10919-0.84854-0.15491-1.7092-0.41748-2.5299-0.33295-0.84146-0.93726-1.4909-1.5841-2.1143-0.8031-0.80104-1.6564-1.5514-2.6579-2.0989l4.5162 0.7687z" opacity=".439"/>
    <path d="m540.88 204.78c0.80188 1.0894 1.4466 2.3162 1.7443 3.6407 0.10162 0.63712-0.00647 1.242-0.15277 1.8584l-4.375-1.3589c0.12561-0.55014 0.21338-1.0866 0.093567-1.6508-0.34186-1.2588-0.99109-2.421-1.7897-3.4484l4.4797 0.959z" opacity=".439"/>
    <path d="m542.93 204.38c0.96045 0.76233 1.6522 1.7306 1.9802 2.909 0.13043 0.96857 0.008484 1.9609-0.096069 2.9295-0.093628 0.62683-0.04071 0.315-0.15851 0.93559l-4.3809-1.3398c0.1106-0.59712 0.061279-0.29707 0.14783-0.90007 0.092468-0.90828 0.22705-1.847 0.046387-2.7488-0.39136-1.0993-1.1475-1.9397-2.0303-2.6886l4.4913 0.9032z" opacity=".439"/>
    <path d="m524.45 273.42c-0.11639 1.1067-0.56653 2.0554-1.2631 2.9043-0.64368 0.771-1.4633 1.0651-2.4398 1.0712-0.80512-0.099518-1.615-0.11706-2.4178-0.23523-0.13794-0.026581-0.27588-0.053101-0.41388-0.079651l-4.1122-2.0192c0.13525 0.032013 0.27051 0.064026 0.40576 0.096039 0.797 0.15863 1.5966 0.17004 2.395 0.28296 0.87909 0.1066 1.6536 0.024963 2.2764-0.67868 0.66638-0.77539 1.0894-1.6252 1.1832-2.6634l4.3864 1.3216z" opacity=".439"/>
    <g transform="matrix(5.2869 1.6887 -1.6887 5.2869 -847.59 -2622.3)">
     <path d="m317.06 420.71c0.026825 0.20444 0.063538 0.41061 0.053558 0.61734-0.025421 0.12463-0.033691 0.20264 0.019318 0.3169 0.071716 0.10251 0.14328 0.17688 0.26111 0.22366 0.14246 0.077637 0.30109 0.10336 0.46033 0.11896 0.1683 0.012268 0.33722 0.010956 0.50589 0.010834-1.3201 0.039276-0.77094 0.02887-0.47208-0.046204l0.8185 0.1066c-0.40384 0.12686-0.63586 0.12009-1.1617 0.068604-0.16928-7.02e-4 -0.33911-6.41e-4 -0.50745-0.020782-0.16226-0.024353-0.31952-0.065704-0.46384-0.14664-0.11517-0.068512-0.20129-0.16299-0.26547-0.28098-0.049164-0.11847-0.0495-0.23032-0.02002-0.35516 0.010986-0.20062-0.028412-0.40109-0.053467-0.59952l0.8253-0.0136z" opacity=".439"/>
     <path d="m316.72 420.47v1.2456c-0.003784 0.09494-0.007446 0.1774 0.079285 0.22864l-0.8227 0.0667c-0.069519-0.090393-0.092041-0.18005-0.08197-0.29535v-1.2456h0.82541z" opacity=".439"/>
    </g>
   </g>
  </g>
 </g>
</svg>
