<svg xmlns="http://www.w3.org/2000/svg" viewBox="0 0 199.8 64.8">
  <g transform="translate(310.75472 -6.62264)">
    <linearGradient id="a" gradientUnits="userSpaceOnUse" x1="-503.5837" y1="35.0508" x2="-503.5837" y2="69.1666" gradientTransform="matrix(1 0 0 -1 310.7547 86.679)">
      <stop offset="0" stop-color="#002245"/>
      <stop offset="1" stop-color="#0073b4"/>
    </linearGradient>
    <path d="M-188 26.4h2.9c.2 0 .4.2.4.4v2.9c0 .2-.2.4-.4.4h-2.9c-.2 0-.4-.2-.4-.4v-2.9c.1-.2.2-.4.4-.4zm-37.7 0h10.4c4 0 7.2 3.2 7.2 7.2 0 2.2-.9 4.1-2.4 5.4 1.5 1.3 2.4 3.3 2.4 5.4 0 4-3.2 7.2-7.2 7.2h-10.4c-.2 0-.4-.2-.4-.4V26.7c0-.1.2-.3.4-.3zm10.4 14.4h-7.2V48h7.2c2 0 3.6-1.6 3.6-3.6s-1.6-3.6-3.6-3.6zm0-10.8h-7.2v7.2h7.2c2 0 3.6-1.6 3.6-3.6s-1.6-3.6-3.6-3.6zm25.2 13.5V34c0-.2-.2-.4-.4-.4h-2.9c-.2 0-.4.2-.4.4v9.5c0 2.5-2 4.5-4.5 4.5s-4.5-2-4.5-4.5V34c0-.2-.2-.4-.4-.4h-2.9c-.2 0-.4.2-.4.4v9.5c0 4.5 3.6 8.1 8.1 8.1 4.6 0 8.3-3.6 8.3-8.1zm21.6 8.1c5 0 9-4 9-9V26.8c0-.2-.2-.4-.4-.4h-2.9c-.2 0-.4.2-.4.4v8.6c-1.5-1.1-3.4-1.8-5.4-1.8-5 0-9 4-9 9s4.1 9 9.1 9zm0-3.6c-3 0-5.4-2.4-5.4-5.4s2.4-5.4 5.4-5.4 5.4 2.4 5.4 5.4-2.5 5.4-5.4 5.4zm-14.1-21.6h2.9c.2 0 .4.2.4.4v24.5c0 .2-.2.4-.4.4h-2.9c-.2 0-.4-.2-.4-.4V26.8c.1-.2.2-.4.4-.4zm-5.4 7.2h2.9c.2 0 .4.2.4.4v17.3c0 .2-.2.4-.4.4h-2.9c-.2 0-.4-.2-.4-.4V34c.1-.2.2-.4.4-.4z" fill-rule="evenodd" clip-rule="evenodd" fill="url(#a)"/>
    <linearGradient id="b" gradientUnits="userSpaceOnUse" x1="-445.0995" y1="35.0508" x2="-445.0995" y2="60.1903" gradientTransform="matrix(1 0 0 -1 310.7547 86.679)">
      <stop offset="0" stop-color="#3d9444"/>
      <stop offset="1" stop-color="#80c342"/>
    </linearGradient>
    <path d="M-150.5 26.4c4 0 7.2 3.2 7.2 7.2 0 2.2-.9 4.1-2.4 5.4 1.5 1.3 2.4 3.3 2.4 5.4 0 4-3.2 7.2-7.2 7.2-3.9 0-7-3-7.2-6.8 0-.1 0-.2.1-.3.1-.1.2-.1.3-.1h2.9c.2 0 .3.1.4.3.2 1.8 1.7 3.3 3.6 3.3 2 0 3.6-1.6 3.6-3.6s-1.6-3.6-3.6-3.6h-1.4c-.2 0-.4-.2-.4-.4v-2.9c0-.2.2-.4.4-.4h1.4c2 0 3.6-1.6 3.6-3.6s-1.6-3.6-3.6-3.6c-1.9 0-3.4 1.4-3.6 3.3 0 .2-.2.3-.4.3h-2.9c-.1 0-.2 0-.3-.1-.1-.1-.1-.2-.1-.3.2-3.7 3.3-6.7 7.2-6.7zm32.4.1c4 0 7.2 3.2 7.2 7.2v10.8c0 4-3.2 7.2-7.2 7.2s-7.2-3.2-7.2-7.2V33.7c0-4 3.2-7.2 7.2-7.2zm3.6 7.2c0-2-1.6-3.6-3.6-3.6s-3.6 1.6-3.6 3.6v10.8c0 2 1.6 3.6 3.6 3.6s3.6-1.6 3.6-3.6V33.7zm-19.8-7.2c3.8 0 7 3 7.2 6.8 0 .1 0 .2-.1.3-.1.1-.2.1-.3.1h-2.9c-.2 0-.3-.1-.4-.3-.2-1.8-1.7-3.3-3.6-3.3-2 0-3.6 1.6-3.6 3.6v2.7c1.1-.6 2.3-1 3.6-1 4 0 7.2 3.2 7.2 7.2v1.8c0 4-3.2 7.2-7.2 7.2s-7.2-3.2-7.2-7.2V33.6c.1-3.9 3.3-7.1 7.3-7.1zm3.6 16.1c0-2-1.6-3.6-3.6-3.6s-3.6 1.6-3.6 3.6v1.8c0 2 1.6 3.6 3.6 3.6s3.6-1.6 3.6-3.6v-1.8z" fill-rule="evenodd" clip-rule="evenodd" fill="url(#b)"/>
  </g>
  <g transform="translate(310.75472 -6.62264)">
    <linearGradient id="c" gradientUnits="userSpaceOnUse" x1="-589.0937" y1="35.0508" x2="-589.0937" y2="74.0402" gradientTransform="matrix(1 0 0 -1 310.7547 86.679)">
      <stop offset="0" stop-color="#002245"/>
      <stop offset="1" stop-color="#0073b4"/>
    </linearGradient>
    <path d="M-266 36.1v15.5h-24.6V36.1l-3.9 2.3-2.7-4.7 18.9-10.9 18.9 10.9-2.7 4.7-3.9-2.3zm-19.2-3.1v13.2h13.8V33l-6.9-4-6.9 4z" fill-rule="evenodd" clip-rule="evenodd" fill="url(#c)"/>
    <linearGradient id="d" gradientUnits="userSpaceOnUse" x1="-553.4044" y1="38.4386" x2="-608.8015" y2="20.6013" gradientTransform="matrix(1 0 0 -1 310.7547 86.679)">
      <stop offset="0" stop-color="#3d9444"/>
      <stop offset="1" stop-color="#80c342"/>
    </linearGradient>
    <path d="M-306.1 55.8c9.1 15.1 28.6 20.1 43.9 11.3 11.2-6.4 17-18.5 16.1-30.6 0-.1-.1-.1-.1-.1-.1 0-.1.1-.1.2.4 10.7-5 21.2-14.8 26.9-12.3 7.1-27.6 4.4-36.8-5.8l1.8-1.8c.1-.1.1-.3.1-.4 0-.1-.2-.2-.3-.2h-9.3c-.1 0-.3.1-.3.2-.2 0-.2.2-.2.3z" fill-rule="evenodd" clip-rule="evenodd" fill="url(#d)"/>
    <linearGradient id="e" gradientUnits="userSpaceOnUse" x1="-624.7879" y1="56.8647" x2="-569.3908" y2="74.702" gradientTransform="matrix(1 0 0 -1 310.7547 86.679)">
      <stop offset="0" stop-color="#3d9444"/>
      <stop offset="1" stop-color="#80c342"/>
    </linearGradient>
    <path d="M-250.6 22.3c-9.1-15.1-28.6-20.2-43.9-11.3-11.2 6.4-17 18.5-16.1 30.6 0 .1.1.1.1.1.1 0 .1-.1.1-.2-.4-10.7 5-21.2 14.8-26.9 12.3-7.1 27.6-4.4 36.8 5.8l-1.8 1.8c-.1.1-.1.3-.1.4.1.1.2.2.3.2h9.3c.1 0 .3-.1.3-.2.3-.1.3-.2.2-.3z" fill-rule="evenodd" clip-rule="evenodd" fill="url(#e)"/>
  </g>
</svg>