<?xml version="1.0" encoding="UTF-8"?>
<svg width="500" height="500" version="1.1" viewBox="0 0 500.00001 500.00001" xmlns="http://www.w3.org/2000/svg">
 <defs>
  <linearGradient id="a" x1="269.96" x2="269.96" y1="357.32" y2="242.92" gradientTransform="matrix(3.4184 0 0 3.4184 -587.81 -761.24)" gradientUnits="userSpaceOnUse">
   <stop stop-color="#f0ff08" offset="0"/>
   <stop stop-color="#fdff95" offset="1"/>
  </linearGradient>
 </defs>
 <rect width="500" height="500" fill-opacity="0"/>
 <rect width="500" height="500" fill="#404040"/>
 <path d="m250 80.812c-93.338 0-169.18 75.846-169.18 169.18 0 93.338 75.846 169.19 169.18 169.19 93.338 0 169.19-75.853 169.19-169.19 0-93.338-75.853-169.18-169.19-169.18zm0 17.092c84.101 0 152.1 67.991 152.1 152.09 0 84.101-67.998 152.1-152.1 152.1-84.101 0-152.09-67.998-152.09-152.1 0-84.101 67.991-152.09 152.09-152.09zm-14.962 21.031a8.5469 8.5469 0 0 0 -8.4192 8.6662v20.03c-13.558 5.4665-22.391 15.339-27.194 24.944-7.1527 14.305-7.0371 28.355-7.0371 28.355 0 27.383 14.951 43.429 29.257 50.582 1.6698 0.83496 3.3332 1.5549 4.9741 2.2033v80.099c-5.7454-3.7021-9.2825-8.7772-11.911-14.034-5.1143-10.229-5.2278-20.711-5.2277-20.711a8.5469 8.5469 0 1 0 -17.092 0s-0.11538 14.05 7.0371 28.355c4.8024 9.6047 13.636 19.477 27.194 24.944v20.023a8.5469 8.5469 0 1 0 17.092 0v-16.017c2.0344 0.18132 4.1127 0.30719 6.2893 0.30719s4.2547-0.12587 6.2893-0.30719v16.017a8.5469 8.5469 0 1 0 17.092 0v-20.023c13.562-5.4661 22.398-15.338 27.2-24.944 7.1527-14.305 7.0371-28.355 7.0371-28.355 0-27.383-14.958-43.429-29.263-50.582-1.6698-0.83491-3.3331-1.5547-4.974-2.2033v-80.099c5.7454 3.702 9.2825 8.7772 11.911 14.034 5.1144 10.229 5.2344 20.711 5.2344 20.711a8.5469 8.5469 0 1 0 17.092 0s0.11538-14.05-7.0371-28.355c-4.8029-9.6057-13.638-19.478-27.2-24.944v-20.03a8.5469 8.5469 0 0 0 -8.6729 -8.6662 8.5469 8.5469 0 0 0 -8.4192 8.6662v16.024c-2.0346-0.18132-4.1126-0.30719-6.2893-0.30719-2.1766 0-4.2549 0.12587-6.2893 0.30719v-16.024a8.5469 8.5469 0 0 0 -8.6729 -8.6662zm14.962 41.475c2.2455 0 4.3158 0.12488 6.2893 0.32018v81.207c-3.8156-0.47951-6.2893-0.4875-6.2893-0.4875s-2.5446-0.045-6.2893-0.66768v-80.052c1.9735-0.1953 4.0438-0.32018 6.2893-0.32018zm-23.381 5.7752v68.555c-9.1587-5.2763-17.139-14.038-17.139-33.81 0 0 0.11338-10.482 5.2277-20.711 2.6285-5.257 6.1656-10.332 11.911-14.034zm17.092 91.87c3.8156 0.47802 6.2893 0.48751 6.2893 0.48751s2.5446 0.0505 6.2893 0.67427v80.052c-1.9735 0.1953-4.0438 0.32068-6.2893 0.32068s-4.3158-0.12488-6.2893-0.32068v-81.214zm29.671 7.204c9.1596 5.2763 17.145 14.038 17.145 33.81 0 0-0.11988 10.482-5.2344 20.711-2.6285 5.257-6.1656 10.332-11.911 14.034v-68.555z" color="#000000" color-rendering="auto" fill="url(#a)" fill-rule="evenodd" image-rendering="auto" shape-rendering="auto" solid-color="#000000" style="block-progression:tb;isolation:auto;mix-blend-mode:normal;text-decoration-color:#000000;text-decoration-line:none;text-decoration-style:solid;text-indent:0;text-transform:none;white-space:normal"/>
</svg>
